
<svg id="logo" viewBox="0 0 182 86" fill="none" xmlns="http://www.w3.org/2000/svg">
<path d="M18 8C17.448 10.6478 17.6717 13.2414 17.4792 15.9152C17.1603 20.343 16.2535 24.9139 15.5521 29.3C14.4039 36.4797 13.0451 43.5997 11.2031 50.6263C9.75557 56.1483 7.07157 61.2177 6.04687 66.8511C5.29352 70.9928 3.99494 74.9813 3 79" stroke-width="4" stroke-linecap="round"/>
<path d="M16 40C18.021 38.7951 19.6731 36.2528 21.1852 34.5345C26.7818 28.1748 31.9397 21.4329 37.3111 14.8799C39.8891 11.7349 41.9446 8.47188 44 5" stroke-width="4" stroke-linecap="round"/>
<path d="M17 37C18.9674 40.9304 20.1858 45.1233 21.9848 49.1305C25.2375 56.3755 29.0804 62.6933 33.6515 69.1273C35.5928 71.8597 36.2883 75.4354 38 78" stroke-width="4" stroke-linecap="round"/>
<path d="M51.0796 48.131C45.7081 48.5567 46.8965 62.2914 47.7208 66.0854C50.0596 76.8505 61.3673 80.1173 71.5256 78.6799C80.931 77.3491 81.6165 66.0395 77.8966 59.0093C73.0753 49.8975 63.7881 43.4326 55.2648 37.9921C54.4252 37.4561 50.9922 35.1214 49.7468 36.355C48.1099 37.9763 49.1475 43.3276 49.6401 45.2794" stroke-width="4" stroke-linecap="round"/>
<path d="M98 48C95.8124 55.9395 95 64.7141 95 73" stroke-width="4" stroke-linecap="round"/>
<path d="M100 28C100.075 28.4482 100.543 28.6956 101 29" stroke-width="4" stroke-linecap="round"/>
<path d="M114.391 45C115.856 53.4029 117.145 61.4887 117.145 70.0648C117.145 72.7819 116.132 68.8032 115.768 67.9059C114.089 63.7651 113.234 59.0688 114.901 54.7679C116.364 50.9922 118.522 47.852 122.221 46.6587C124.521 45.9166 127.71 46.4228 130 46.8957" stroke-width="4" stroke-linecap="round"/>
<path d="M148.396 49.4363C148.226 48.0998 146.769 49.5415 146.492 49.9474C144.716 52.5577 143.842 56.912 143.258 59.9632C141.38 69.7774 150.081 72.6096 158.83 71.8954C163.886 71.4827 175.73 69.3451 176.827 63.2337C178.139 55.9308 171.721 46.0853 166.238 41.6178C161.995 38.1614 155.496 35.1876 149.805 36.2011C147.679 36.5798 145.178 38.1308 144.64 40.2381" stroke-width="4" stroke-linecap="round"/>
</svg>
