
<svg width="856" height="169" viewBox="0 0 856 169" fill="none" xmlns="http://www.w3.org/2000/svg">
<path d="M1 139.187C21.6627 96.4738 45.9913 15.4653 94.9818 15.4653C132.974 15.4653 122.476 163.49 85.4836 167.908C48.4908 172.327 141.973 15.4653 195.962 15.4653C249.952 15.4653 220.957 167.908 179.965 167.908C138.742 167.908 251.951 38.1109 303.941 18.7793" stroke="#D9D9D9" stroke-opacity="0.1"/>
<path d="M341.784 15.4653C379.597 15.4653 369.149 163.401 332.331 167.817C303.457 171.28 354.45 75.6099 403.716 34.1653C417.271 22.7632 430.694 15.4653 442.288 15.4653C496.022 15.4653 467.165 167.817 426.366 167.817C385.338 167.817 511.446 15.4653 564.185 15.4653" stroke="#D9D9D9" stroke-opacity="0.1"/>
<path d="M602.734 15.4653C640.547 15.4653 630.098 163.401 593.28 167.817C564.406 171.28 615.399 75.6099 664.666 34.1653C678.22 22.7632 691.643 15.4653 703.237 15.4653C756.971 15.4653 728.114 167.817 687.316 167.817C646.287 167.817 772.395 15.4653 825.135 15.4653" stroke="#D9D9D9" stroke-opacity="0.1"/>
<path d="M322.993 2.42836L326.002 11.3504L326.122 11.704L326.495 11.6865L335.235 11.2752L328.343 17.319L328.09 17.5408L328.197 17.8575L331.241 26.8808L324.046 21.6067L323.723 21.3705L323.42 21.6362L316.657 27.5671L318.995 18.2906L319.077 17.965L318.808 17.7677L311.476 12.3933L320.216 11.982L320.59 11.9644L320.681 11.6008L322.993 2.42836Z" stroke="#D9D9D9" stroke-opacity="0.1"/>
<path d="M584.973 5.74129L587.301 14.9087L587.393 15.2721L587.767 15.2889L596.508 15.6816L589.185 21.0717L588.916 21.2695L588.999 21.5949L591.353 30.8665L584.58 24.9499L584.276 24.685L583.954 24.9219L576.768 30.2113L579.796 21.1815L579.902 20.8646L579.649 20.6433L572.746 14.6142L581.487 15.0068L581.861 15.0236L581.98 14.6697L584.973 5.74129Z" stroke="#D9D9D9" stroke-opacity="0.1"/>
<path d="M841.892 5.74233L844.902 14.6644L845.021 15.018L845.395 15.0004L854.135 14.5891L847.243 20.633L846.99 20.8548L847.097 21.1715L850.14 30.1948L842.945 24.9207L842.623 24.6845L842.32 24.9501L835.556 30.8811L837.895 21.6046L837.977 21.2789L837.708 21.0817L830.375 15.7072L839.115 15.2959L839.489 15.2784L839.581 14.9148L841.892 5.74233Z" stroke="#D9D9D9" stroke-opacity="0.1"/>
</svg>
