<?xml version="1.0" encoding="utf-8"?><svg xmlns="http://www.w3.org/2000/svg" xmlns:xlink="http://www.w3.org/1999/xlink"><symbol viewBox="0 -4.5 20 20" id="arrow" xmlns="http://www.w3.org/2000/svg"><path d="M19.708 10.634c.39-.405.39-1.06 0-1.464L11.444.607a1.95 1.95 0 0 0-2.827 0L.292 9.232c-.385.4-.39 1.048-.01 1.454a.976.976 0 0 0 1.425.01l7.617-7.893a.975.975 0 0 1 1.414 0l7.557 7.83a.974.974 0 0 0 1.413 0" fill-rule="evenodd"/></symbol><symbol viewBox="0 0 1038 830" id="bagel" xmlns="http://www.w3.org/2000/svg"><g filter="url(#ba)"><path d="M876 415c0 66.258-36.664 128.806-101.058 175.895C710.57 637.968 620.178 668 519 668s-191.57-30.032-255.942-77.105C198.664 543.806 162 481.258 162 415c0-66.258 36.664-128.806 101.058-175.895C327.43 192.032 417.822 162 519 162s191.57 30.032 255.942 77.105C839.336 286.194 876 348.742 876 415Z"/></g><defs><filter id="ba" x="0" y="0" width="1038" height="830" filterUnits="userSpaceOnUse" color-interpolation-filters="sRGB"><feFlood flood-opacity="0" result="BackgroundImageFix"/><feBlend in="SourceGraphic" in2="BackgroundImageFix" result="shape"/><feGaussianBlur stdDeviation="66" result="effect1_foregroundBlur_3168_224"/></filter></defs></symbol><symbol viewBox="0 0 30 30" id="click" xmlns="http://www.w3.org/2000/svg"><path d="M11.448 10c-.4-.01-.796.065-1.082.345-.287.28-.373.675-.366 1.08.008.404.093.864.25 1.42l4.515 15.986c.088.31.205.575.39.784.184.208.447.35.714.38.532.056.975-.228 1.372-.595l3.144-2.91c.244-.244.468-.174.636-.006l3.252 3.122a1.45 1.45 0 0 0 1.01.385c.357.002.73-.11 1.013-.392l3.306-3.305c.284-.284.396-.655.397-1.016 0-.36-.11-.74-.405-1.02l-3.25-3.123c-.177-.176-.166-.436.013-.615l3.027-3.142c.378-.394.668-.844.607-1.38a1.148 1.148 0 0 0-.383-.714c-.21-.184-.475-.3-.786-.39L12.846 10.25c-.544-.157-.998-.237-1.398-.25zm-.03 1c.26.006.662.068 1.17.216l15.976 4.644c.646.188.362.562.102.822l-3.027 3.144c-.274.284-.387.65-.39 1.01-.002.358.11.74.403 1.02l3.25 3.12c.228.227.095.508-.007.61L25.59 28.89c-.14.164-.466.15-.623-.006l-3.25-3.12a1.429 1.429 0 0 0-1.01-.38c-.353 0-.716.108-1 .372l-3.145 2.91c-.48.396-.712.325-.83-.093l-4.517-15.987c-.147-.52-.21-.922-.215-1.18 0-.407.198-.407.418-.407zm-6.92 15c-.45 0-.66-.55-.354-.853l2-2c.457-.455 1.165.25.71.707l-2.003 2a.478.478 0 0 1-.353.146zM25.5 4c.45 0 .66.55.356.853l-2 2c-.457.455-1.165-.25-.71-.707l2.003-2a.472.472 0 0 1 .35-.146zM4.497 4c-.45 0-.658.55-.353.853l2 2c.457.455 1.165-.25.71-.707l-2.003-2A.482.482 0 0 0 4.498 4zM0 14.5c0-.277.223-.5.5-.5h3a.499.499 0 1 1 0 1h-3a.499.499 0 0 1-.5-.5zM14.5 0c.277 0 .5.223.5.5v3a.499.499 0 1 1-1 0v-3c0-.277.223-.5.5-.5z"/></symbol><symbol viewBox="0 0 300 300" id="logo" xmlns="http://www.w3.org/2000/svg"><path d="M260.137 269H108.935c-5.407 0-8.055-6.591-4.15-10.332l75.857-72.678a6.001 6.001 0 0 1 8.316.014l75.345 72.678c3.885 3.747 1.232 10.318-4.166 10.318Zm4.571-233.749L34.234 264.807C30.451 268.575 24 265.895 24 260.556v-76.68c0-1.58.623-3.096 1.734-4.219L176.947 26.781A6 6 0 0 1 181.213 25h79.261c5.351 0 8.025 6.475 4.234 10.251ZM30 25h69.627c5.33 0 8.014 6.43 4.266 10.22l-69.627 70.4C30.496 109.432 24 106.762 24 101.401V31a6 6 0 0 1 6-6Z"/></symbol><symbol viewBox="0 0 856 169" id="spiral" xmlns="http://www.w3.org/2000/svg"><path d="M1 139.187C21.663 96.474 45.991 15.465 94.982 15.465c37.992 0 27.494 148.025-9.498 152.443-36.993 4.419 56.489-152.443 110.478-152.443 53.99 0 24.995 152.443-15.997 152.443-41.223 0 71.986-129.797 123.976-149.129m37.843-3.314c37.813 0 27.365 147.936-9.453 152.352-28.874 3.463 22.119-92.207 71.385-133.652 13.555-11.402 26.978-18.7 38.572-18.7 53.734 0 24.877 152.352-15.922 152.352-41.028 0 85.08-152.352 137.819-152.352m38.549 0c37.813 0 27.364 147.936-9.454 152.352-28.874 3.463 22.119-92.207 71.386-133.652 13.554-11.402 26.977-18.7 38.571-18.7 53.734 0 24.877 152.352-15.921 152.352-41.029 0 85.079-152.352 137.819-152.352M322.993 2.428l3.009 8.922.12.354.373-.018 8.74-.41-6.892 6.043-.253.222.107.317 3.044 9.023-7.195-5.274-.323-.236-.303.265-6.763 5.931 2.338-9.276.082-.326-.269-.197-7.332-5.375 8.74-.411.374-.018.091-.363 2.312-9.173Zm261.98 3.313 2.328 9.168.092.363.374.017 8.741.393-7.323 5.39-.269.198.083.325 2.354 9.271-6.773-5.916-.304-.265-.322.237-7.186 5.29 3.028-9.03.106-.317-.253-.222-6.903-6.029 8.741.393.374.017.119-.354 2.993-8.929Zm256.919.001 3.01 8.922.119.354.374-.018 8.74-.41-6.892 6.043-.253.222.107.317 3.043 9.023-7.195-5.274-.322-.236-.303.265-6.764 5.931 2.339-9.276.082-.326-.269-.197-7.333-5.375 8.74-.411.374-.018.092-.363 2.311-9.173Z"/></symbol><symbol viewBox="0 0 32 57" id="star" xmlns="http://www.w3.org/2000/svg"><g clip-path="url(#fa)"><path d="M28.432 27.93c-6.274-.675-11.166-5.628-11.569-11.819L16 .296l-.863 15.815c-.46 6.135-5.295 11.087-11.569 11.82L0 28.323l3.568.394c6.274.675 11.166 5.628 11.569 11.82L16 56.351l.863-15.815c.46-6.135 5.295-11.087 11.569-11.819L32 28.324l-3.568-.394Z"/></g><defs><clipPath id="fa"><path transform="translate(0 .296)" d="M0 0h32v56H0z"/></clipPath></defs></symbol></svg>