<?xml version="1.0" standalone="no"?>
<!DOCTYPE svg PUBLIC "-//W3C//DTD SVG 20010904//EN"
 "http://www.w3.org/TR/2001/REC-SVG-20010904/DTD/svg10.dtd">
<svg version="1.0" xmlns="http://www.w3.org/2000/svg"
 width="1352.000000pt" height="1352.000000pt" viewBox="0 0 1352.000000 1352.000000"
 preserveAspectRatio="xMidYMid meet">
<metadata>
Created by potrace 1.14, written by Peter Selinger 2001-2017
</metadata>
<g transform="translate(0.000000,1352.000000) scale(0.100000,-0.100000)"
fill="#000000" stroke="none">
<path d="M3795 9147 c-2013 -1858 -2459 -2267 -2470 -2267 -22 0 -25 145 -25
1163 l0 997 -650 0 -650 0 0 -2565 c0 -1411 3 -2565 6 -2565 3 0 63 53 133
118 581 544 2165 1992 2179 1992 10 0 25 -12 33 -27 9 -16 211 -364 449 -775
l433 -748 476 1 c431 1 471 2 426 15 -435 126 -695 271 -946 530 -273 284
-439 638 -518 1107 -36 212 -43 347 -38 707 5 387 18 505 83 770 134 540 418
936 862 1197 168 99 328 162 567 223 l140 35 3 268 c1 147 -1 267 -6 267 -4 0
-223 -199 -487 -443z"/>
<path d="M5715 9133 c20 -38 42 -74 49 -81 7 -7 72 -28 144 -47 270 -71 512
-188 707 -340 114 -89 299 -284 374 -394 35 -52 93 -151 128 -220 l63 -126
843 -5 c942 -6 881 0 925 -78 16 -30 22 -56 22 -104 0 -78 -23 -125 -75 -155
-38 -21 -41 -21 -811 -25 -425 -1 -775 -6 -779 -10 -3 -3 3 -62 14 -130 11
-67 26 -166 33 -218 14 -107 18 -663 5 -827 l-7 -103 454 0 454 0 57 -97 c31
-54 246 -423 477 -820 l420 -723 744 0 744 0 -14 23 c-8 12 -175 299 -372 637
-196 338 -426 733 -511 878 -84 145 -153 269 -153 276 0 7 44 42 99 79 283
192 448 501 501 937 15 123 12 466 -5 591 -90 680 -460 1042 -1159 1134 -92
13 -375 15 -1759 15 l-1649 0 37 -67z"/>
<path d="M4685 9030 c-60 -5 -156 -16 -213 -25 -56 -8 -107 -15 -112 -15 -7 0
-10 -798 -10 -2234 l0 -2234 23 -6 c12 -3 81 -13 152 -23 189 -25 754 -25 945
0 74 10 143 20 153 23 16 5 17 120 17 2239 l0 2233 -32 6 c-189 35 -696 54
-923 36z"/>
<path d="M10945 9033 c-254 -20 -434 -48 -609 -93 -124 -32 -316 -100 -316
-111 0 -4 25 -43 56 -86 197 -274 284 -676 255 -1172 -6 -98 -13 -187 -17
-197 -5 -17 -3 -16 13 2 10 12 36 45 58 74 92 119 257 219 439 265 142 36 343
50 506 36 520 -46 795 -301 861 -796 16 -125 6 -403 -19 -520 -98 -457 -430
-686 -989 -685 -338 1 -579 84 -754 261 -166 166 -240 385 -243 716 0 95 -3
173 -6 173 -3 -1 -27 -38 -53 -84 -79 -136 -210 -274 -361 -380 -22 -15 -66
66 479 -871 526 -903 535 -919 535 -950 0 -53 -8 -55 -209 -55 -101 0 -182 -2
-179 -5 8 -9 191 -43 328 -62 190 -25 754 -26 945 0 683 92 1162 353 1459 796
209 310 339 752 362 1221 4 74 13 153 20 175 17 49 18 99 2 128 -6 12 -15 85
-20 162 -71 1194 -640 1859 -1731 2024 -225 34 -611 51 -812 34z"/>
<path d="M4140 8940 c-651 -176 -1081 -561 -1289 -1154 -104 -296 -151 -615
-151 -1036 0 -619 119 -1092 369 -1465 235 -352 608 -600 1082 -720 54 -14
102 -25 108 -25 8 0 11 215 11 716 l0 716 -55 59 c-149 161 -213 355 -222 669
-9 328 40 529 172 715 24 33 57 73 74 89 l31 30 0 718 c0 568 -3 718 -12 717
-7 0 -60 -13 -118 -29z"/>
<path d="M5710 8256 c0 -632 2 -717 15 -722 28 -11 124 -137 164 -214 85 -164
115 -313 115 -565 0 -344 -67 -556 -233 -737 l-61 -66 0 -712 c0 -673 1 -711
18 -706 9 2 71 19 137 36 362 95 660 262 882 493 124 130 205 245 291 417 154
307 221 580 258 1055 16 215 13 333 -17 630 -94 931 -557 1527 -1365 1759 -65
18 -138 37 -161 41 l-43 7 0 -716z"/>
<path d="M7270 5865 c0 -37 -87 -271 -145 -390 -212 -435 -549 -736 -1025
-914 l-105 -39 -3 -101 c-2 -59 1 -101 7 -101 5 0 295 142 645 317 l636 316 0
464 c0 254 -2 463 -5 463 -3 0 -5 -7 -5 -15z"/>
</g>
</svg>
