<?xml version="1.0" encoding="utf-8"?><svg viewBox="0 0 1038 830" xmlns="http://www.w3.org/2000/svg" xmlns:xlink="http://www.w3.org/1999/xlink"><style>:root>svg{display:none}:root>svg:target{display:block}</style><svg viewBox="0 -4.5 20 20" id="arrow" xmlns="http://www.w3.org/2000/svg"><path d="M19.708 10.634c.39-.405.39-1.06 0-1.464L11.444.607a1.95 1.95 0 00-2.827 0L.292 9.232c-.385.4-.39 1.048-.01 1.454a.976.976 0 001.425.01l7.617-7.893a.975.975 0 011.414 0l7.557 7.83a.974.974 0 001.413 0" fill-rule="evenodd"/></svg><svg viewBox="0 0 1038 830" id="bagel" xmlns="http://www.w3.org/2000/svg"><g filter="url(#ba)"><path d="M876 415c0 66.258-36.664 128.806-101.058 175.895C710.57 637.968 620.178 668 519 668s-191.57-30.032-255.942-77.105C198.664 543.806 162 481.258 162 415c0-66.258 36.664-128.806 101.058-175.895C327.43 192.032 417.822 162 519 162s191.57 30.032 255.942 77.105C839.336 286.194 876 348.742 876 415z"/></g><defs><linearGradient id="bb" x1="519" y1="132" x2="519" y2="698" gradientUnits="userSpaceOnUse"><stop stop-color="#FF3EA6"/><stop offset="1" stop-color="#92B7FF"/></linearGradient><filter id="ba" x="0" y="0" width="1038" height="830" filterUnits="userSpaceOnUse" color-interpolation-filters="sRGB"><feFlood flood-opacity="0" result="BackgroundImageFix"/><feBlend in="SourceGraphic" in2="BackgroundImageFix" result="shape"/><feGaussianBlur stdDeviation="66" result="effect1_foregroundBlur_3168_224"/></filter></defs></svg><svg viewBox="0 0 30 30" id="click" xmlns="http://www.w3.org/2000/svg"><path d="M11.448 10c-.4-.01-.796.065-1.082.345-.287.28-.373.675-.366 1.08.008.404.093.864.25 1.42l4.515 15.986c.088.31.205.575.39.784.184.208.447.35.714.38.532.056.975-.228 1.372-.595l3.144-2.91c.244-.244.468-.174.636-.006l3.252 3.122a1.45 1.45 0 001.01.385c.357.002.73-.11 1.013-.392l3.306-3.305c.284-.284.396-.655.397-1.016 0-.36-.11-.74-.405-1.02l-3.25-3.123c-.177-.176-.166-.436.013-.615l3.027-3.142c.378-.394.668-.844.607-1.38a1.148 1.148 0 00-.383-.714c-.21-.184-.475-.3-.786-.39L12.846 10.25c-.544-.157-.998-.237-1.398-.25zm-.03 1c.26.006.662.068 1.17.216l15.976 4.644c.646.188.362.562.102.822l-3.027 3.144c-.274.284-.387.65-.39 1.01-.002.358.11.74.403 1.02l3.25 3.12c.228.227.095.508-.007.61L25.59 28.89c-.14.164-.466.15-.623-.006l-3.25-3.12a1.429 1.429 0 00-1.01-.38c-.353 0-.716.108-1 .372l-3.145 2.91c-.48.396-.712.325-.83-.093l-4.517-15.987c-.147-.52-.21-.922-.215-1.18 0-.407.198-.407.418-.407zm-6.92 15c-.45 0-.66-.55-.354-.853l2-2c.457-.455 1.165.25.71.707l-2.003 2a.478.478 0 01-.353.146zM25.5 4c.45 0 .66.55.356.853l-2 2c-.457.455-1.165-.25-.71-.707l2.003-2a.472.472 0 01.35-.146zM4.497 4c-.45 0-.658.55-.353.853l2 2c.457.455 1.165-.25.71-.707l-2.003-2A.482.482 0 004.498 4zM0 14.5c0-.277.223-.5.5-.5h3a.499.499 0 110 1h-3a.499.499 0 01-.5-.5zM14.5 0c.277 0 .5.223.5.5v3a.499.499 0 11-1 0v-3c0-.277.223-.5.5-.5z"/></svg><svg viewBox="0 0 98 96" id="github-mark" xmlns="http://www.w3.org/2000/svg"><path fill-rule="evenodd" clip-rule="evenodd" d="M48.854 0C21.839 0 0 22 0 49.217c0 21.756 13.993 40.172 33.405 46.69 2.427.49 3.316-1.059 3.316-2.362 0-1.141-.08-5.052-.08-9.127-13.59 2.934-16.42-5.867-16.42-5.867-2.184-5.704-5.42-7.17-5.42-7.17-4.448-3.015.324-3.015.324-3.015 4.934.326 7.523 5.052 7.523 5.052 4.367 7.496 11.404 5.378 14.235 4.074.404-3.178 1.699-5.378 3.074-6.6-10.839-1.141-22.243-5.378-22.243-24.283 0-5.378 1.94-9.778 5.014-13.2-.485-1.222-2.184-6.275.486-13.038 0 0 4.125-1.304 13.426 5.052a46.97 46.97 0 0112.214-1.63c4.125 0 8.33.571 12.213 1.63 9.302-6.356 13.427-5.052 13.427-5.052 2.67 6.763.97 11.816.485 13.038 3.155 3.422 5.015 7.822 5.015 13.2 0 18.905-11.404 23.06-22.324 24.283 1.78 1.548 3.316 4.481 3.316 9.126 0 6.6-.08 11.897-.08 13.526 0 1.304.89 2.853 3.316 2.364 19.412-6.52 33.405-24.935 33.405-46.691C97.707 22 75.788 0 48.854 0z"/></svg><svg viewBox="0 0 182 86" id="logo" xmlns="http://www.w3.org/2000/svg"><path d="M18 8c-.552 2.648-.328 5.241-.52 7.915-.32 4.428-1.227 8.999-1.928 13.385-1.148 7.18-2.507 14.3-4.349 21.326-1.447 5.522-4.131 10.592-5.156 16.225C5.294 70.993 3.995 74.981 3 79m13-39c2.021-1.205 3.673-3.747 5.185-5.465 5.597-6.36 10.755-13.102 16.126-19.655C39.89 11.735 41.945 8.472 44 5"/><path d="M17 37c1.967 3.93 3.186 8.123 4.985 12.13 3.253 7.245 7.095 13.563 11.666 19.997C35.593 71.86 36.288 75.435 38 78m13.08-29.869c-5.372.426-4.183 14.16-3.36 17.954 2.34 10.766 13.647 14.032 23.806 12.595 9.405-1.33 10.09-12.64 6.37-19.67-4.82-9.112-14.108-15.577-22.631-21.018-.84-.536-4.273-2.87-5.518-1.637-1.637 1.621-.6 6.973-.107 8.924M98 48c-2.188 7.94-3 16.714-3 25m5-45c.075.448.543.696 1 1m13.391 16c1.465 8.403 2.754 16.489 2.754 25.065 0 2.717-1.013-1.262-1.377-2.16-1.679-4.14-2.534-8.836-.867-13.137 1.463-3.776 3.621-6.916 7.32-8.11 2.3-.741 5.489-.235 7.779.238m18.396 2.54c-.17-1.336-1.627.105-1.904.511-1.776 2.61-2.65 6.965-3.234 10.016-1.878 9.814 6.823 12.647 15.572 11.932 5.056-.412 16.9-2.55 17.997-8.661 1.312-7.303-5.106-17.149-10.589-21.616-4.243-3.457-10.742-6.43-16.433-5.417-2.126.379-4.627 1.93-5.165 4.037"/></svg><svg id="rss" viewBox="0 0 552.8 205.3" xmlns="http://www.w3.org/2000/svg"><style>.fst0{fill:#000}.fst5,.fst7{fill:#000;stroke:#d9d9d9;stroke-width:4;stroke-miterlimit:10}.fst7{fill:none}</style><path d="M285.4 68l26.3-1.7c.6 4.3 1.7 7.5 3.5 9.8 2.9 3.6 6.9 5.4 12.2 5.4 3.9 0 7-.9 9.1-2.8 2-1.5 3.2-3.9 3.2-6.4 0-2.4-1.1-4.7-3-6.2-2-1.8-6.7-3.6-14.1-5.2-12.1-2.7-20.8-6.3-25.9-10.9-5.1-4.3-8-10.6-7.8-17.3 0-4.6 1.4-9.2 4-13 3-4.3 7.1-7.7 12-9.6 5.3-2.3 12.7-3.5 22-3.5 11.4 0 20.1 2.1 26.1 6.4 6 4.2 9.6 11 10.7 20.3l-26 1.5c-.7-4-2.1-6.9-4.4-8.8s-5.3-2.8-9.2-2.8c-3.2 0-5.6.7-7.2 2-1.5 1.2-2.5 3-2.4 5 0 1.5.8 2.9 2 3.8 1.3 1.2 4.4 2.3 9.3 3.3 12.1 2.6 20.7 5.2 26 7.9 5.3 2.7 9.1 6 11.4 9.9 2.4 4 3.6 8.6 3.5 13.3 0 5.6-1.6 11.2-4.8 15.9-3.3 4.9-7.9 8.7-13.3 11-5.7 2.5-12.9 3.8-21.5 3.8-15.2 0-25.7-2.9-31.6-8.8S286.1 77 285.4 68zM6.3 97.6V8.2h46.1c8.5 0 15.1.7 19.6 2.2 4.4 1.4 8.3 4.3 10.9 8.2 2.9 4.3 4.3 9.3 4.2 14.5.3 8.8-4.2 17.2-11.9 21.6-3 1.7-6.3 2.9-9.7 3.5 2.5.7 5 1.9 7.2 3.3 1.7 1.4 3.1 3 4.4 4.7 1.5 1.7 2.8 3.6 3.9 5.6l13.4 25.9H63L48.2 70.2c-1.9-3.5-3.5-5.8-5-6.9-2-1.4-4.4-2.1-6.8-2.1H34v36.3H6.3zM34 44.4h11.7c2.5-.2 4.9-.6 7.3-1.2 1.8-.3 3.4-1.3 4.5-2.8 2.7-3.6 2.3-8.7-1-11.8-1.8-1.5-5.3-2.3-10.3-2.3H34v18.1zM0 174.2l26.3-1.7c.6 4.3 1.7 7.5 3.5 9.8 2.8 3.6 6.9 5.5 12.2 5.5 3.9 0 7-.9 9.1-2.8 2-1.6 3.2-3.9 3.2-6.4 0-2.4-1.1-4.7-3-6.2-2-1.8-6.7-3.6-14.2-5.2-12.1-2.7-20.8-6.3-25.9-10.9-5.1-4.3-8-10.6-7.8-17.3 0-4.6 1.4-9.2 4-13 3-4.3 7.1-7.7 12-9.6 5.3-2.3 12.7-3.5 22-3.5 11.4 0 20.1 2.1 26.1 6.4s9.5 11 10.6 20.3l-26 1.5c-.7-4-2.1-6.9-4.4-8.8-2.2-1.9-5.3-2.8-9.2-2.7-3.2 0-5.6.7-7.2 2.1-1.6 1.2-2.5 3-2.4 5 0 1.5.8 2.9 2 3.8 1.3 1.2 4.4 2.3 9.3 3.3 12.1 2.6 20.7 5.2 26 7.9 5.3 2.7 9.1 6 11.4 9.9 2.4 4 3.6 8.6 3.6 13.2 0 5.6-1.7 11.1-4.8 15.8-3.3 4.9-7.9 8.7-13.3 11-5.7 2.5-12.9 3.8-21.5 3.8-15.2 0-25.7-2.9-31.6-8.8-5.9-6-9.2-13.4-10-22.4z"/><path d="M133 167.2l24.2 7.3c-1.3 6.1-4 11.9-7.7 17-3.4 4.5-7.9 8-13 10.3-5.2 2.3-11.8 3.5-19.8 3.5-9.7 0-17.7-1.4-23.8-4.2-6.2-2.8-11.5-7.8-16-14.9-4.5-7.1-6.7-16.2-6.7-27.3 0-14.8 3.9-26.2 11.8-34.1s19-11.9 33.4-11.9c11.3 0 20.1 2.3 26.6 6.8 6.4 4.6 11.2 11.6 14.4 21l-24.4 5.4c-.6-2.1-1.5-4.2-2.7-6-1.5-2.1-3.4-3.7-5.7-4.9-2.3-1.2-4.9-1.7-7.5-1.7-6.3 0-11.1 2.5-14.4 7.6-2.5 3.7-3.8 9.6-3.8 17.6 0 9.9 1.5 16.7 4.5 20.4 3 3.7 7.2 5.5 12.7 5.5 5.3 0 9.3-1.5 12-4.4 2.7-3.1 4.7-7.4 5.9-13zm56.5-52.8h27.6v31.3h30.2v-31.3h27.8v89.4h-27.8v-36.2h-30.2v36.2h-27.6v-89.4z"/><path d="M271.3 159.1c0-14.6 4.1-26 12.2-34.1 8.1-8.1 19.5-12.2 34-12.2 14.9 0 26.3 4 34.4 12S364 144 364 158.4c0 10.5-1.8 19-5.3 25.7-3.4 6.6-8.7 12-15.2 15.6-6.7 3.7-15 5.6-24.9 5.6-10.1 0-18.4-1.6-25-4.8-6.8-3.4-12.4-8.7-16.1-15.2-4.1-7-6.2-15.7-6.2-26.2zm27.6.1c0 9 1.7 15.5 5 19.5 3.3 3.9 7.9 5.9 13.7 5.9 5.9 0 10.5-1.9 13.8-5.8s4.9-10.8 4.9-20.8c0-8.4-1.7-14.6-5.1-18.4-3.4-3.9-8-5.8-13.8-5.8-5.1-.2-10 2-13.4 5.9-3.4 3.9-5.1 10.4-5.1 19.5zm93.4-.1c0-14.6 4.1-26 12.2-34.1 8.1-8.1 19.5-12.2 34-12.2 14.9 0 26.4 4 34.4 12S485 144 485 158.4c0 10.5-1.8 19-5.3 25.7-3.4 6.6-8.7 12-15.2 15.6-6.7 3.7-15 5.6-24.9 5.6-10.1 0-18.4-1.6-25-4.8-6.8-3.4-12.4-8.7-16.1-15.2-4.1-7-6.2-15.7-6.2-26.2zm27.6.1c0 9 1.7 15.5 5 19.5 3.3 3.9 7.9 5.9 13.7 5.9 5.9 0 10.5-1.9 13.8-5.8 3.3-3.9 4.9-10.8 4.9-20.8 0-8.4-1.7-14.6-5.1-18.4-3.4-3.9-8-5.8-13.8-5.8-5.1-.2-10.1 2-13.4 5.9-3.4 3.9-5.1 10.4-5.1 19.5z"/><path d="M482.1 114.4h27.6v67.4h43.1v22H482v-89.4z"/><ellipse transform="rotate(-37.001 420.46 67.88)" class="fst0" cx="420.5" cy="67.9" rx="63" ry="51.8"/><defs><ellipse id="fSVGID_1_" transform="rotate(-37.001 420.46 67.88)" cx="420.5" cy="67.9" rx="63" ry="51.8"/></defs><clipPath id="fSVGID_2_"><use xlink:href="#fSVGID_1_" overflow="visible"/></clipPath><path transform="rotate(-37.001 420.82 68.353)" class="fst0" d="M330.9-14.2h179.8v165.1H330.9z"/><g id="fLayer_2_1_"><defs><path id="fSVGID_3_" transform="rotate(-37.001 420.82 68.353)" d="M330.9-14.2h179.8v165.1H330.9z"/></defs><clipPath id="fSVGID_4_"><use xlink:href="#fSVGID_3_" overflow="visible"/></clipPath><g id="fLayer_1-2"><ellipse transform="rotate(-37.001 420.46 67.88)" class="fst0" cx="420.5" cy="67.9" rx="63" ry="51.8"/><defs><ellipse id="fSVGID_5_" transform="rotate(-37.001 420.46 67.88)" cx="420.5" cy="67.9" rx="63" ry="51.8"/></defs><clipPath id="fSVGID_6_"><use xlink:href="#fSVGID_5_" overflow="visible"/></clipPath><path transform="rotate(-37 420.799 68.802)" class="fst0" d="M357.8 17h125.9v103.7H357.8z"/><defs><path id="fSVGID_7_" transform="rotate(-37 420.799 68.802)" d="M357.8 17h125.9v103.7H357.8z"/></defs><clipPath id="fSVGID_8_"><use xlink:href="#fSVGID_7_" overflow="visible"/></clipPath><ellipse transform="rotate(-37.001 420.46 67.88)" class="fst5" cx="420.5" cy="67.9" rx="63" ry="51.8"/><path transform="rotate(-37 420.799 68.802)" d="M357.8 17h125.9v103.7H357.8z"/><ellipse transform="rotate(-37.001 420.46 67.88)" class="fst7" cx="420.5" cy="67.9" rx="63" ry="51.8"/><path transform="rotate(-37 420.799 68.802)" class="fst0" d="M357.8 17h125.9v103.7H357.8z"/><defs><path id="fSVGID_9_" transform="rotate(-37 420.799 68.802)" d="M357.8 17h125.9v103.7H357.8z"/></defs><clipPath id="fSVGID_10_"><use xlink:href="#fSVGID_9_" overflow="visible"/></clipPath><ellipse transform="rotate(-37.001 420.46 67.88)" class="fst5" cx="420.5" cy="67.9" rx="63" ry="51.8"/><path transform="rotate(-37 420.799 68.802)" d="M357.8 17h125.9v103.7H357.8z"/><path transform="rotate(-37.001 420.82 68.353)" class="fst7" d="M330.9-14.2h179.8v165.1H330.9z"/><ellipse transform="rotate(-37.001 420.46 67.88)" class="fst7" cx="420.5" cy="67.9" rx="63" ry="51.8"/><path d="M392.4 61.3l10-7 12.3 17.5c2.1 2.8 3.7 5.8 4.9 9.1.7 2.5.5 5.2-.5 7.6-1.3 3-3.4 5.5-6.2 7.3-3.3 2.3-6.1 3.6-8.5 4-2.3.4-4.7 0-6.9-1-2.4-1.2-4.5-2.9-6.1-5.1l8.6-8c.7 1.1 1.6 2.1 2.6 2.9.7.5 1.5.8 2.4.8.7 0 1.4-.3 1.9-.7 1-.6 1.7-1.8 1.6-3-.3-1.7-1-3.4-2.1-4.7l-14-19.7zm30 11.1l9.1-7.2c1 1.2 2.3 2.1 3.7 2.6 2 .6 4.1.2 5.8-1.1 1.2-.8 2.2-1.9 2.6-3.3.6-1.8-.4-3.8-2.2-4.4-.3-.1-.6-.2-.9-.2-1.2-.1-3.3.4-6.4 1.7-5.1 2.1-9.1 2.9-12.1 2.6-2.9-.3-5.6-1.8-7.2-4.3-1.2-1.7-1.8-3.7-1.9-5.7 0-2.3.6-4.6 1.9-6.5 1.9-2.7 4.2-5 7-6.8 4.2-2.9 7.9-4.3 11.1-4.3 3.2 0 6.2 1.5 9 4.6l-9 7.1c-1.8-2.3-5.2-2.8-7.5-1l-.3.3c-1 .6-1.7 1.5-2.1 2.6-.3.8-.1 1.7.4 2.4.4.5 1 .9 1.7.9.8.1 2.2-.3 4.2-1.2 5-2.1 8.8-3.3 11.4-3.7 2.2-.4 4.5-.2 6.6.7 1.9.8 3.5 2.2 4.6 3.9 1.4 2 2.2 4.4 2.3 6.9.1 2.6-.6 5.1-2 7.3-1.8 2.7-4.1 5-6.8 6.8-5.5 3.8-10 5.4-13.6 4.8-3.9-.6-7.1-2.6-9.4-5.5z"/></g></g></svg><svg viewBox="0 0 856 169" id="spiral" xmlns="http://www.w3.org/2000/svg"><path d="M1 139.187C21.663 96.474 45.991 15.465 94.982 15.465c37.992 0 27.494 148.025-9.498 152.443-36.993 4.419 56.489-152.443 110.478-152.443 53.99 0 24.995 152.443-15.997 152.443-41.223 0 71.986-129.797 123.976-149.129m37.843-3.314c37.813 0 27.365 147.936-9.453 152.352-28.874 3.463 22.119-92.207 71.385-133.652 13.555-11.402 26.978-18.7 38.572-18.7 53.734 0 24.877 152.352-15.922 152.352-41.028 0 85.08-152.352 137.819-152.352m38.549 0c37.813 0 27.364 147.936-9.454 152.352-28.874 3.463 22.119-92.207 71.386-133.652 13.554-11.402 26.977-18.7 38.571-18.7 53.734 0 24.877 152.352-15.921 152.352-41.029 0 85.079-152.352 137.819-152.352M322.993 2.428l3.009 8.922.12.354.373-.018 8.74-.41-6.892 6.043-.253.222.107.317 3.044 9.023-7.195-5.274-.323-.236-.303.265-6.763 5.931 2.338-9.276.082-.326-.269-.197-7.332-5.375 8.74-.411.374-.018.091-.363 2.312-9.173zm261.98 3.313l2.328 9.168.092.363.374.017 8.741.393-7.323 5.39-.269.198.083.325 2.354 9.271-6.773-5.916-.304-.265-.322.237-7.186 5.29 3.028-9.03.106-.317-.253-.222-6.903-6.029 8.741.393.374.017.119-.354 2.993-8.929zm256.919.001l3.01 8.922.119.354.374-.018 8.74-.41-6.892 6.043-.253.222.107.317 3.043 9.023-7.195-5.274-.322-.236-.303.265-6.764 5.931 2.339-9.276.082-.326-.269-.197-7.333-5.375 8.74-.411.374-.018.092-.363 2.311-9.173z"/></svg><svg viewBox="0 0 32 57" id="star" xmlns="http://www.w3.org/2000/svg"><g clip-path="url(#ha)"><path d="M28.432 27.93c-6.274-.675-11.166-5.628-11.569-11.819L16 .296l-.863 15.815c-.46 6.135-5.295 11.087-11.569 11.82L0 28.323l3.568.394c6.274.675 11.166 5.628 11.569 11.82L16 56.351l.863-15.815c.46-6.135 5.295-11.087 11.569-11.819L32 28.324l-3.568-.394z"/></g><defs><clipPath id="ha"><path transform="translate(0 .296)" d="M0 0h32v56H0z"/></clipPath></defs></svg></svg>